<?xml version="1.0" encoding="UTF-8" standalone="no"?>
<!DOCTYPE svg PUBLIC "-//W3C//DTD SVG 1.1//EN"
 "http://www.w3.org/Graphics/SVG/1.1/DTD/svg11.dtd">
<!-- Generated by graphviz version 2.43.0 (0)
 -->
<!-- Title: %3 Pages: 1 -->
<svg width="616pt" height="548pt"
 viewBox="0.00 0.00 615.50 548.00" xmlns="http://www.w3.org/2000/svg" xmlns:xlink="http://www.w3.org/1999/xlink">
<g id="graph0" class="graph" transform="scale(1 1) rotate(0) translate(4 544)">
<title>%3</title>
<polygon fill="white" stroke="transparent" points="-4,4 -4,-544 611.5,-544 611.5,4 -4,4"/>
<!-- 3573278404682443235 -->
<g id="node1" class="node">
<title>3573278404682443235</title>
<polygon fill="none" stroke="black" points="270.5,-540 100.5,-540 100.5,-504 270.5,-504 270.5,-540"/>
<text text-anchor="middle" x="185.5" y="-517" font-family="Helvetica,sans-Serif" font-size="20.00">Max(Projection)</text>
</g>
<!-- &#45;537318326485946762 -->
<g id="node2" class="node">
<title>&#45;537318326485946762</title>
<polygon fill="none" stroke="black" points="359,-468 12,-468 12,-432 359,-432 359,-468"/>
<text text-anchor="middle" x="185.5" y="-445" font-family="Helvetica,sans-Serif" font-size="20.00">Projection(Repartition, DepDelay)</text>
</g>
<!-- &#45;537318326485946762&#45;&gt;3573278404682443235 -->
<g id="edge1" class="edge">
<title>&#45;537318326485946762&#45;&gt;3573278404682443235</title>
<path fill="none" stroke="black" d="M185.5,-468.3C185.5,-476.02 185.5,-485.29 185.5,-493.89"/>
<polygon fill="black" stroke="black" points="182,-493.9 185.5,-503.9 189,-493.9 182,-493.9"/>
</g>
<!-- 3164468920711612014 -->
<g id="node3" class="node">
<title>3164468920711612014</title>
<polygon fill="none" stroke="black" points="288,-396 83,-396 83,-360 288,-360 288,-396"/>
<text text-anchor="middle" x="185.5" y="-373" font-family="Helvetica,sans-Serif" font-size="20.00">Repartition(Assign)</text>
</g>
<!-- 3164468920711612014&#45;&gt;&#45;537318326485946762 -->
<g id="edge2" class="edge">
<title>3164468920711612014&#45;&gt;&#45;537318326485946762</title>
<path fill="none" stroke="black" d="M185.5,-396.3C185.5,-404.02 185.5,-413.29 185.5,-421.89"/>
<polygon fill="black" stroke="black" points="182,-421.9 185.5,-431.9 189,-421.9 182,-421.9"/>
</g>
<!-- &#45;7026375103472779878 -->
<g id="node4" class="node">
<title>&#45;7026375103472779878</title>
<polygon fill="none" stroke="black" points="371,-324 0,-324 0,-288 371,-288 371,-324"/>
<text text-anchor="middle" x="185.5" y="-301" font-family="Helvetica,sans-Serif" font-size="20.00">Assign(ReadCSV, Date, ToDatetime)</text>
</g>
<!-- &#45;7026375103472779878&#45;&gt;3164468920711612014 -->
<g id="edge3" class="edge">
<title>&#45;7026375103472779878&#45;&gt;3164468920711612014</title>
<path fill="none" stroke="black" d="M185.5,-324.3C185.5,-332.02 185.5,-341.29 185.5,-349.89"/>
<polygon fill="black" stroke="black" points="182,-349.9 185.5,-359.9 189,-349.9 182,-349.9"/>
</g>
<!-- &#45;5424968927564336067 -->
<g id="node5" class="node">
<title>&#45;5424968927564336067</title>
<polygon fill="none" stroke="black" points="413.5,-252 171.5,-252 171.5,-216 413.5,-216 413.5,-252"/>
<text text-anchor="middle" x="292.5" y="-229" font-family="Helvetica,sans-Serif" font-size="20.00">ToDatetime(Projection)</text>
</g>
<!-- &#45;5424968927564336067&#45;&gt;&#45;7026375103472779878 -->
<g id="edge5" class="edge">
<title>&#45;5424968927564336067&#45;&gt;&#45;7026375103472779878</title>
<path fill="none" stroke="black" d="M266.32,-252.12C252.46,-261.19 235.26,-272.45 220.29,-282.24"/>
<polygon fill="black" stroke="black" points="218.23,-279.41 211.78,-287.81 222.06,-285.26 218.23,-279.41"/>
</g>
<!-- 1770580764004277545 -->
<g id="node6" class="node">
<title>1770580764004277545</title>
<polygon fill="none" stroke="black" points="607.5,-180 107.5,-180 107.5,-144 607.5,-144 607.5,-180"/>
<text text-anchor="middle" x="357.5" y="-157" font-family="Helvetica,sans-Serif" font-size="20.00">Projection(RenameFrame, [&#39;year&#39;, &#39;month&#39;, &#39;day&#39;])</text>
</g>
<!-- 1770580764004277545&#45;&gt;&#45;5424968927564336067 -->
<g id="edge6" class="edge">
<title>1770580764004277545&#45;&gt;&#45;5424968927564336067</title>
<path fill="none" stroke="black" d="M341.43,-180.3C333.56,-188.78 323.94,-199.14 315.33,-208.42"/>
<polygon fill="black" stroke="black" points="312.62,-206.19 308.38,-215.9 317.75,-210.95 312.62,-206.19"/>
</g>
<!-- 3946678994671020312 -->
<g id="node7" class="node">
<title>3946678994671020312</title>
<polygon fill="none" stroke="black" points="430.5,-108 166.5,-108 166.5,-72 430.5,-72 430.5,-108"/>
<text text-anchor="middle" x="298.5" y="-85" font-family="Helvetica,sans-Serif" font-size="20.00">RenameFrame(ReadCSV)</text>
</g>
<!-- 3946678994671020312&#45;&gt;1770580764004277545 -->
<g id="edge7" class="edge">
<title>3946678994671020312&#45;&gt;1770580764004277545</title>
<path fill="none" stroke="black" d="M313.08,-108.3C320.16,-116.7 328.78,-126.93 336.55,-136.14"/>
<polygon fill="black" stroke="black" points="333.96,-138.51 343.08,-143.9 339.31,-133.99 333.96,-138.51"/>
</g>
<!-- &#45;8022549921056162670 -->
<g id="node8" class="node">
<title>&#45;8022549921056162670</title>
<polygon fill="none" stroke="black" points="213,-36 106,-36 106,0 213,0 213,-36"/>
<text text-anchor="middle" x="159.5" y="-13" font-family="Helvetica,sans-Serif" font-size="20.00">ReadCSV</text>
</g>
<!-- &#45;8022549921056162670&#45;&gt;&#45;7026375103472779878 -->
<g id="edge4" class="edge">
<title>&#45;8022549921056162670&#45;&gt;&#45;7026375103472779878</title>
<path fill="none" stroke="black" d="M144.95,-36.16C122.03,-65.34 81.77,-126.67 98.5,-180 110.8,-219.21 140.24,-256.89 161.46,-280.44"/>
<polygon fill="black" stroke="black" points="158.96,-282.89 168.31,-287.86 164.11,-278.14 158.96,-282.89"/>
</g>
<!-- &#45;8022549921056162670&#45;&gt;3946678994671020312 -->
<g id="edge8" class="edge">
<title>&#45;8022549921056162670&#45;&gt;3946678994671020312</title>
<path fill="none" stroke="black" d="M193.5,-36.12C212.1,-45.49 235.33,-57.19 255.21,-67.2"/>
<polygon fill="black" stroke="black" points="253.86,-70.44 264.37,-71.81 257.01,-64.19 253.86,-70.44"/>
</g>
</g>
</svg>
